# xmcd
#
# Track frame offsets:
#  150
#  28211
#  55799
#  85907
#  116826
#  144003
#  176384
#  207949
#  234507
#  263088
#  291835
#  320801
#
# Disc length: 4681 seconds
#
# Revision: 0
# Processed by: cddbd v1.5.2PL0 Copyright (c) Steve Scherf et al.
# Submitted via: AltoMP3_Maker 3.0
#
DISCID=aa12470c
DTITLE=C.S. Lewis - De kronieken van Narnia - Het paard en de jongen CD 3
DYEAR=1900
DGENRE=
TTITLE0=Hoofdstuk 8 - In het paleis van de Tisrok
TTITLE1=Er wordt altijd beweerd dat de hoge koning
TTITLE2=Weet dan dat in de eerste plaats
TTITLE3=Hoofdstuk 9 - Door de woestijn
TTITLE4=Eerst was het heerlijk
TTITLE5=Vier paar ogen keken gespannen uit
TTITLE6=Hoofdstuk 10 - De kluizenaar van het Grensgebied in het Zuiden
TTITLE7=Shasta liet zijn voeten uit de stijgbeugels glijden
TTITLE8=De deur ging open
TTITLE9=Hoofdstuk 11 - De ongewenste reisgezel
TTITLE10=Brie had hem altijd gezegd
TTITLE11=Het schoot hem te binnen
EXTD=
EXTT0=
EXTT1=
EXTT2=
EXTT3=
EXTT4=
EXTT5=
EXTT6=
EXTT7=
EXTT8=
EXTT9=
EXTT10=
EXTT11=
PLAYORDER=
